<?xml version='1.0' encoding='UTF-8'?>
<svg xmlns="http://www.w3.org/2000/svg" viewBox="0 0 1920 1080" width="1920" height="1080">
    <g id="current_move" piece_point=""/>
    <g transform="translate(420, 0)">
        <defs>
            <linearGradient id="lightSquareGradient" x1="0%" y1="0%" x2="100%" y2="100%">
                <stop offset="0%" style="stop-color:#FFFFFF"/>
                <stop offset="100%" style="stop-color:#FFFFFF"/>
            </linearGradient>
        
            <linearGradient id="darkSquareGradient" x1="0%" y1="0%" x2="100%" y2="100%">
                <stop offset="0%" style="stop-color:#2751c7"/>
                <stop offset="100%" style="stop-color:#2751c7"/>
            </linearGradient>

            <filter id="squareShadow" x="-20%" y="-20%" width="140%" height="140%">
                <feGaussianBlur in="SourceAlpha" stdDeviation="1"/>
                <feOffset dx="1" dy="1"/>
                <feComponentTransfer>
                    <feFuncA type="linear" slope="0.2"/>
                </feComponentTransfer>
                <feMerge>
                    <feMergeNode/>
                    <feMergeNode in="SourceGraphic"/>
                </feMerge>
            </filter>
        </defs>

        <rect width="1080" height="1080" fill="url(#lightSquareGradient)"/>
        
        <!-- Dark squares with subtle shadow -->
        <g filter="url(#squareShadow)">
            <!-- Row 1 -->
            <rect x="135" y="0" width="135" height="135" fill="url(#darkSquareGradient)"/>
            <rect x="405" y="0" width="135" height="135" fill="url(#darkSquareGradient)"/>
            <rect x="675" y="0" width="135" height="135" fill="url(#darkSquareGradient)"/>
            <rect x="945" y="0" width="135" height="135" fill="url(#darkSquareGradient)"/>
            
            <!-- Row 2 -->
            <rect x="0" y="135" width="135" height="135" fill="url(#darkSquareGradient)"/>
            <rect x="270" y="135" width="135" height="135" fill="url(#darkSquareGradient)"/>
            <rect x="540" y="135" width="135" height="135" fill="url(#darkSquareGradient)"/>
            <rect x="810" y="135" width="135" height="135" fill="url(#darkSquareGradient)"/>
            
            <!-- Row 3 -->
            <rect x="135" y="270" width="135" height="135" fill="url(#darkSquareGradient)"/>
            <rect x="405" y="270" width="135" height="135" fill="url(#darkSquareGradient)"/>
            <rect x="675" y="270" width="135" height="135" fill="url(#darkSquareGradient)"/>
            <rect x="945" y="270" width="135" height="135" fill="url(#darkSquareGradient)"/>
            
            <!-- Row 4 -->
            <rect x="0" y="405" width="135" height="135" fill="url(#darkSquareGradient)"/>
            <rect x="270" y="405" width="135" height="135" fill="url(#darkSquareGradient)"/>
            <rect x="540" y="405" width="135" height="135" fill="url(#darkSquareGradient)"/>
            <rect x="810" y="405" width="135" height="135" fill="url(#darkSquareGradient)"/>
            
            <!-- Row 5 -->
            <rect x="135" y="540" width="135" height="135" fill="url(#darkSquareGradient)"/>
            <rect x="405" y="540" width="135" height="135" fill="url(#darkSquareGradient)"/>
            <rect x="675" y="540" width="135" height="135" fill="url(#darkSquareGradient)"/>
            <rect x="945" y="540" width="135" height="135" fill="url(#darkSquareGradient)"/>
            
            <!-- Row 6 -->
            <rect x="0" y="675" width="135" height="135" fill="url(#darkSquareGradient)"/>
            <rect x="270" y="675" width="135" height="135" fill="url(#darkSquareGradient)"/>
            <rect x="540" y="675" width="135" height="135" fill="url(#darkSquareGradient)"/>
            <rect x="810" y="675" width="135" height="135" fill="url(#darkSquareGradient)"/>
            
            <!-- Row 7 -->
            <rect x="135" y="810" width="135" height="135" fill="url(#darkSquareGradient)"/>
            <rect x="405" y="810" width="135" height="135" fill="url(#darkSquareGradient)"/>
            <rect x="675" y="810" width="135" height="135" fill="url(#darkSquareGradient)"/>
            <rect x="945" y="810" width="135" height="135" fill="url(#darkSquareGradient)"/>
            
            <!-- Row 8 -->
            <rect x="0" y="945" width="135" height="135" fill="url(#darkSquareGradient)"/>
            <rect x="270" y="945" width="135" height="135" fill="url(#darkSquareGradient)"/>
            <rect x="540" y="945" width="135" height="135" fill="url(#darkSquareGradient)"/>
            <rect x="810" y="945" width="135" height="135" fill="url(#darkSquareGradient)"/>
        </g>

        <defs>
            <!-- King - Abstract crown with geometric patterns -->
            <symbol id="king" viewBox="-32 0 512 512">
                <g transform="scale(0.8) translate(50, 50)">    
                    <g>
                        <path d="M400 448H48a16 16 0 0 0-16 16v32a16 16 0 0 0 16 16h352a16 16 0 0 0 16-16v-32a16 16 0 0 0-16-16zm16-288H256v-48h40a8 8 0 0 0 8-8V56a8 8 0 0 0-8-8h-40V8a8 8 0 0 0-8-8h-48a8 8 0 0 0-8 8v40h-40a8 8 0 0 0-8 8v48a8 8 0 0 0 8 8h40v48H32a32 32 0 0 0-30.52 41.54L74.56 416h298.88l73.08-214.46A32 32 0 0 0 416 160z"/>
                    </g>
                </g>
            </symbol>

            <!-- Queen - Flowing curves and points -->
            <symbol id="queen" viewBox="0 0 512 512">
                <g transform="scale(0.8) translate(50, 50)">
                    <g>
                        <path d="M256 112a56 56 0 1 0-56-56 56 56 0 0 0 56 56zm176 336H80a16 16 0 0 0-16 16v32a16 16 0 0 0 16 16h352a16 16 0 0 0 16-16v-32a16 16 0 0 0-16-16zm72.87-263.84l-28.51-15.92c-7.44-5-16.91-2.46-22.29 4.68a47.59 47.59 0 0 1-47.23 18.23C383.7 186.86 368 164.93 368 141.4a13.4 13.4 0 0 0-13.4-13.4h-38.77c-6 0-11.61 4-12.86 9.91a48 48 0 0 1-93.94 0c-1.25-5.92-6.82-9.91-12.86-9.91H157.4a13.4 13.4 0 0 0-13.4 13.4c0 25.69-19 48.75-44.67 50.49a47.5 47.5 0 0 1-41.54-19.15c-5.28-7.09-14.73-9.45-22.09-4.54l-28.57 16a16 16 0 0 0-5.44 20.47L104.24 416h303.52l102.55-211.37a16 16 0 0 0-5.44-20.47z"/>
                    </g>
                </g>
            </symbol>

            <!-- Bishop - Dynamic triangular design -->
            <symbol id="bishop" viewBox="-96 0 512 512">
                <g transform="scale(0.8) translate(50, 50)">
                    <g>
                        <path d="M8 287.88c0 51.64 22.14 73.83 56 84.6V416h192v-43.52c33.86-10.77 56-33 56-84.6 0-30.61-10.73-67.1-26.69-102.56L185 285.65a8 8 0 0 1-11.31 0l-11.31-11.31a8 8 0 0 1 0-11.31L270.27 155.1c-20.8-37.91-46.47-72.1-70.87-92.59C213.4 59.09 224 47.05 224 32a32 32 0 0 0-32-32h-64a32 32 0 0 0-32 32c0 15 10.6 27.09 24.6 30.51C67.81 106.8 8 214.5 8 287.88zM304 448H16a16 16 0 0 0-16 16v32a16 16 0 0 0 16 16h288a16 16 0 0 0 16-16v-32a16 16 0 0 0-16-16z"/>
                    </g>
                </g>
            </symbol>

            <!-- Knight - Geometric tower -->
            <symbol id="knight" viewBox="-64 0 512 512">
                <g transform="scale(0.8) translate(50, 50)">
                    <g>
                        <path d="M19 272.47l40.63 18.06a32 32 0 0 0 24.88.47l12.78-5.12a32 32 0 0 0 18.76-20.5l9.22-30.65a24 24 0 0 1 12.55-15.65L159.94 208v50.33a48 48 0 0 1-26.53 42.94l-57.22 28.65A80 80 0 0 0 32 401.48V416h319.86V224c0-106-85.92-192-191.92-192H12A12 12 0 0 0 0 44a16.9 16.9 0 0 0 1.79 7.58L16 80l-9 9a24 24 0 0 0-7 17v137.21a32 32 0 0 0 19 29.26zM52 128a20 20 0 1 1-20 20 20 20 0 0 1 20-20zm316 320H16a16 16 0 0 0-16 16v32a16 16 0 0 0 16 16h352a16 16 0 0 0 16-16v-32a16 16 0 0 0-16-16z"/>
                    </g>
                </g>
            </symbol>

            <!-- Rook - Geometric tower -->
            <symbol id="rook" viewBox="-64 0 512 512">
                <g transform="scale(0.8) translate(50, 50)">    
                    <g>
                        <path d="M368 32h-56a16 16 0 0 0-16 16v48h-48V48a16 16 0 0 0-16-16h-80a16 16 0 0 0-16 16v48H88.1V48a16 16 0 0 0-16-16H16A16 16 0 0 0 0 48v176l64 32c0 48.33-1.54 95-13.21 160h282.42C321.54 351 320 303.72 320 256l64-32V48a16 16 0 0 0-16-16zM224 320h-64v-64a32 32 0 0 1 64 0zm144 128H16a16 16 0 0 0-16 16v32a16 16 0 0 0 16 16h352a16 16 0 0 0 16-16v-32a16 16 0 0 0-16-16z"/>
                    </g>
                </g>
            </symbol>

            <!-- Pawn - Minimalist design -->
            <symbol id="pawn" viewBox="-96 0 512 512">
                <g transform="scale(0.8) translate(50, 50)">
                    <g>
                        <path d="M105.1 224H80a16 16 0 0 0-16 16v32a16 16 0 0 0 16 16h16v5.49c0 44-4.14 86.6-24 122.51h176c-19.89-35.91-24-78.51-24-122.51V288h16a16 16 0 0 0 16-16v-32a16 16 0 0 0-16-16h-25.1c29.39-18.38 49.1-50.78 49.1-88a104 104 0 0 0-208 0c0 37.22 19.71 69.62 49.1 88zM304 448H16a16 16 0 0 0-16 16v32a16 16 0 0 0 16 16h288a16 16 0 0 0 16-16v-32a16 16 0 0 0-16-16z"/>
                    </g>
                </g>
            </symbol>

            <!-- Piece gradients -->
            <linearGradient id="whiteGradient" x1="0%" y1="0%" x2="100%" y2="100%">
                <stop offset="0%" style="stop-color:#FFFFFF"/>
                <stop offset="100%" style="stop-color:#E0E0E0"/>
            </linearGradient>
            <linearGradient id="blackGradient" x1="0%" y1="0%" x2="100%" y2="100%">
                <stop offset="0%" style="stop-color:#2C3E50"/>
                <stop offset="100%" style="stop-color:#1a252f"/>
            </linearGradient>

            <filter id="glow" x="-50%" y="-50%" width="200%" height="200%">
                <feGaussianBlur stdDeviation="3.27" result="coloredBlur"/>
                <feMerge>
                    <feMergeNode in="coloredBlur"/>
                    <feMergeNode in="SourceGraphic"/>
                </feMerge>
            </filter>

        </defs>

        <!-- Place White Pieces -->
        <g id="whitepieces" fill="url(#whiteGradient)" stroke="#000000" stroke-width="10" filter="url(#glow)">
            <use href="#knight" x="405" y="405" width="135" height="135" _id="Nd5"/>
<use href="#pawn" x="540" y="540" width="135" height="135" _id="Pe4"/>
<use href="#pawn" x="810" y="540" width="135" height="135" _id="Pg4"/>
<use href="#rook" x="675" y="675" width="135" height="135" _id="Rf3"/>
<use href="#pawn" x="0" y="810" width="135" height="135" _id="Pa2"/>
<use href="#pawn" x="135" y="810" width="135" height="135" _id="Pb2"/>
<use href="#king" x="0" y="945" width="135" height="135" _id="Ka1"/>
<use href="#rook" x="945" y="945" width="135" height="135" _id="Rh1"/>
</g>

        <!-- Place Black Pieces -->
        <g id="blackpieces" fill="url(#blackGradient)" stroke="#000000" stroke-width="10" filter="url(#glow)">
            <use href="#rook" x="135" y="0" width="135" height="135" _id="rb8"/>
<use href="#king" x="810" y="0" width="135" height="135" _id="kg8"/>
<use href="#pawn" x="270" y="135" width="135" height="135" _id="pc7"/>
<use href="#pawn" x="810" y="135" width="135" height="135" _id="pg7"/>
<use href="#pawn" x="945" y="135" width="135" height="135" _id="ph7"/>
<use href="#pawn" x="0" y="270" width="135" height="135" _id="pa6"/>
<use href="#bishop" x="0" y="405" width="135" height="135" _id="ba5"/>
<use href="#queen" x="135" y="405" width="135" height="135" _id="qb5"/>
<use href="#pawn" x="540" y="405" width="135" height="135" _id="pe5"/>
</g>

        <rect x="0" y="0" width="1080" height="1080" fill="none" stroke="#2C3E50" stroke-width="10" filter="url(#squareShadow)"/>
        <g font-family="Arial" font-size="40" text-anchor="middle" fill="#2C3E50" filter="url(#squareShadow)">
            <!-- File labels (a-h) -->
            <text x="117" y="1070">a</text>
            <text x="252" y="1070">b</text>
            <text x="387" y="1070">c</text>
            <text x="522" y="1070">d</text>
            <text x="657" y="1070">e</text>
            <text x="792" y="1070">f</text>
            <text x="927" y="1070">g</text>
            <text x="1062" y="1070">h</text>
            
            <!-- Rank labels (1-8) -->
            <text x="15" y="1062">1</text>
            <text x="15" y="927">2</text>
            <text x="15" y="792">3</text>
            <text x="15" y="657">4</text>
            <text x="15" y="522">5</text>
            <text x="15" y="387">6</text>
            <text x="15" y="252">7</text>
            <text x="15" y="117">8</text>
        </g>
    </g>
</svg>
